<svg width="32" height="32" viewBox="0 0 32 32" fill="none" xmlns="http://www.w3.org/2000/svg">
<path fill-rule="evenodd" clip-rule="evenodd" d="M14.9999 17C14.4476 17 13.9999 17.4477 13.9999 18C13.9999 18.5523 14.4476 19 14.9999 19C15.5522 19 15.9999 18.5523 15.9999 18C15.9999 17.4477 15.5522 17 14.9999 17ZM11.9999 18C11.9999 16.3431 13.343 15 14.9999 15C16.6567 15 17.9999 16.3431 17.9999 18C17.9999 19.6569 16.6567 21 14.9999 21C13.343 21 11.9999 19.6569 11.9999 18Z" fill="#0040A8"/>
<path fill-rule="evenodd" clip-rule="evenodd" d="M2.99988 10C2.99988 7.23858 5.23845 5 7.99988 5H18.9999C19.5522 5 19.9999 5.44772 19.9999 6C19.9999 6.55228 19.5522 7 18.9999 7H7.99988C7.6133 7 7.24381 7.07312 6.90446 7.20628L18.2882 10.2419C20.477 10.8256 21.9999 12.8079 21.9999 15.0731V26.1026C21.9999 28.7276 19.514 30.6411 16.9763 29.9694L6.72042 27.2546C4.52729 26.6741 2.99988 24.6897 2.99988 22.4211V10ZM5.23606 8.83126C5.08398 9.19044 4.99988 9.5854 4.99988 10V22.4211C4.99988 23.7823 5.91633 24.9729 7.2322 25.3212L17.4881 28.036C18.7569 28.3718 19.9999 27.4151 19.9999 26.1026V15.0731C19.9999 13.714 19.0861 12.5246 17.7729 12.1744L5.23606 8.83126Z" fill="#0040A8"/>
<path fill-rule="evenodd" clip-rule="evenodd" d="M27.9999 14C28.5522 14 28.9999 14.4477 28.9999 15V21C28.9999 22.6569 27.6567 24 25.9999 24H21.9999C21.4476 24 20.9999 23.5523 20.9999 23C20.9999 22.4477 21.4476 22 21.9999 22H25.9999C26.5522 22 26.9999 21.5523 26.9999 21V15C26.9999 14.4477 27.4476 14 27.9999 14Z" fill="#0040A8"/>
<path fill-rule="evenodd" clip-rule="evenodd" d="M24.7689 3.00526C24.8112 3.00667 24.8439 3.00776 24.8649 3.00776H26.9999C27.5522 3.00776 27.9999 3.45547 27.9999 4.00776C27.9999 4.56004 27.5522 5.00776 26.9999 5.00776H24.8649C24.7942 5.00776 24.7134 5.00564 24.6435 5.00381C24.6286 5.00342 24.6143 5.00305 24.6007 5.00271C24.5145 5.00056 24.4331 4.99907 24.3521 5.00009C24.2133 5.00184 24.1039 5.01104 24.0211 5.02656C24.024 5.03101 24.0273 5.03583 24.031 5.04104C24.0752 5.10322 24.161 5.18957 24.3098 5.29506C24.4559 5.3987 24.6268 5.49605 24.8162 5.59657C24.8565 5.61797 24.9021 5.64174 24.9504 5.66691C25.0926 5.741 25.2583 5.82731 25.3815 5.90168C25.4378 5.93566 25.5093 5.9702 25.6304 6.02876C25.694 6.05951 25.7713 6.09688 25.8673 6.14428C26.1053 6.26174 26.4082 6.41907 26.7031 6.62354C27.2814 7.02443 27.9999 7.73185 27.9999 8.86088C27.9999 9.40956 27.8221 9.89517 27.4738 10.2672C27.1463 10.617 26.7408 10.7889 26.4105 10.8779C25.8644 11.0252 25.248 11.0022 25.0528 10.9949C25.0272 10.994 25.0089 10.9933 24.9989 10.9933H22.9999C22.4476 10.9933 21.9999 10.5456 21.9999 9.9933C21.9999 9.44101 22.4476 8.9933 22.9999 8.9933H24.9989C25.0468 8.9933 25.1135 8.99509 25.169 8.99658C25.1891 8.99712 25.2076 8.99762 25.2234 8.99798C25.2983 8.99971 25.3761 9.00062 25.4567 8.99865C25.6243 8.99454 25.7732 8.97833 25.8898 8.94689C25.9449 8.93204 25.9787 8.9176 25.9977 8.9079C25.9989 8.8968 25.9999 8.88144 25.9999 8.86088C25.9999 8.69575 25.9189 8.51343 25.5637 8.26724C25.392 8.14817 25.1946 8.04263 24.982 7.93765C24.9436 7.9187 24.8998 7.89754 24.8529 7.87488C24.69 7.79619 24.4897 7.69942 24.3482 7.61405C24.2814 7.57372 24.2048 7.53389 24.0935 7.4759C24.0333 7.44457 23.9629 7.40795 23.8784 7.36307C23.6678 7.25127 23.4059 7.10596 23.1529 6.9265C22.6847 6.59452 21.9999 5.96991 21.9999 4.97838C21.9999 4.48835 22.1484 4.03231 22.4748 3.67479C22.7834 3.3367 23.1681 3.17818 23.4776 3.09936C23.9537 2.97808 24.5232 2.99707 24.7689 3.00526ZM23.9117 5.05741C23.9117 5.0574 23.912 5.0572 23.9127 5.05683Z" fill="#0040A8"/>
<path fill-rule="evenodd" clip-rule="evenodd" d="M24.9999 2C25.5522 2 25.9999 2.44772 25.9999 3L25.9999 4C25.9999 4.55228 25.5522 5 24.9999 5C24.4476 5 23.9999 4.55228 23.9999 4L23.9999 3C23.9999 2.44772 24.4476 2 24.9999 2Z" fill="#0040A8"/>
<path fill-rule="evenodd" clip-rule="evenodd" d="M24.9999 9C25.5522 9 25.9999 9.44772 25.9999 10V11C25.9999 11.5523 25.5522 12 24.9999 12C24.4476 12 23.9999 11.5523 23.9999 11V10C23.9999 9.44772 24.4476 9 24.9999 9Z" fill="#0040A8"/>
</svg>
